<?xml version="1.0" encoding="utf-8"?>
<!-- Generator: Adobe Illustrator 25.4.1, SVG Export Plug-In . SVG Version: 6.00 Build 0)  -->
<svg version="1.1" id="Layer_1" xmlns="http://www.w3.org/2000/svg" xmlns:xlink="http://www.w3.org/1999/xlink" x="0px" y="0px"
	 viewBox="0 0 316.2 60" style="enable-background:new 0 0 316.2 60;" xml:space="preserve">
<style type="text/css">
	.st0{fill:#4CC8C6;}
	.st1{fill:#FFFFFF;}
	.st2{font-family:'OpenSans-Bold';}
	.st3{font-size:29.4169px;}
	.st4{font-family:'OpenSans-Light';}
</style>
<g>
	<g>
		<path class="st0" d="M28.6,5.8c12.2,0,22.1,9.9,22.1,22.1s-9.9,22.1-22.1,22.1S6.6,40,6.6,27.8c0,0,0,0,0,0
			C6.6,15.7,16.5,5.8,28.6,5.8 M28.6,0C13.3,0,0.8,12.5,0.8,27.8s12.5,27.8,27.8,27.8s27.8-12.5,27.9-27.8c0,0,0,0,0,0
			C56.5,12.5,44,0,28.6,0C28.7,0,28.7,0,28.6,0z"/>
		<path class="st0" d="M47.3,16.1L28.6,48.5L10,16.1H47.3 M57.3,10.4H0L28.6,60L57.3,10.4L57.3,10.4z"/>
	</g>
	<text transform="matrix(1 0 0 1 67.2395 39.1402)"><tspan x="0" y="0" class="st1 st2 st3">ZENTA</tspan><tspan x="94.8" y="0" class="st1 st4 st3">BOUTIQUE</tspan></text>
</g>
</svg>
