<?xml version="1.0" encoding="utf-8"?>
<!-- Generator: Adobe Illustrator 25.4.1, SVG Export Plug-In . SVG Version: 6.00 Build 0)  -->
<svg version="1.1" id="Layer_1" xmlns="http://www.w3.org/2000/svg" xmlns:xlink="http://www.w3.org/1999/xlink" x="0px" y="0px"
	 viewBox="0 0 625.2 469.6" style="enable-background:new 0 0 625.2 469.6;" xml:space="preserve">
<style type="text/css">
	.st0{fill:#FFFFFF;}
	.st1{display:none;}
	.st2{display:inline;fill:#FFFFFF;}
	.st3{font-family:'OpenSans-Bold';}
	.st4{font-size:86.5549px;}
</style>
<g>
	<g>
		<path class="st0" d="M214.8,32.8l-4.4-9C274-7.6,348.5-8,412.5,22.7l-4.3,9C347,2.3,275.6,2.7,214.8,32.8L214.8,32.8z"/>
		<g>
			<path class="st0" d="M120.8,339.5c-1-1.8-2-3.6-3-5.5h-11.3c1.8,3.5,3.6,7,5.6,10.4c19.2,33.6,46.4,61.8,79.3,82.2l5.3-8.5
				C165.3,398.6,139.2,371.6,120.8,339.5z"/>
			<path class="st0" d="M117.8,127c6.2-11.6,13.4-22.6,21.6-32.9l-7.9-6.2c-9.6,12.2-18,25.3-25,39.1H117.8z"/>
		</g>
		<g class="st1">
			<path class="st2" d="M198.2,116.5l-0.4-0.9l-0.3-0.8l-0.6-1.7l-0.2-0.9l-0.1-0.9l-0.2-0.9l-0.3-2.6v-1.8l0.1-0.9v-2.7l0.2-1.7
				l0.2-1l0.1-0.9l0.2-0.8l0.2-0.9l0.3-1l0.4-1.1l0.6-1.9l0.4-1.1l0.4-0.9l0.4-0.8l0.4-0.9l0.4-0.8l0.4-0.9l0.5-0.8l0.5-0.7l1-0.6
				l1.1-0.3l0.9,0.1l0.8,0.3l0.8,0.5l0.8,0.8l0.5,1.1v0.9l-0.5,1.2l-0.5,1.2l-0.3,0.6l-0.4,1l-0.4,0.8l-0.3,0.9l-0.2,0.9l-0.3,1.2
				l-0.3,1.2l-0.2,0.9l-0.1,0.9l-0.2,0.9l-0.1,0.9v0.8l-0.2,1.7v0.9l0.1,1v1.7l0.1,0.9l0.2,0.9l0.2,1.2l0.3,1.5l0.4,1.2l0.3,0.9
				l0.8,1.5l0.6,0.8l0.5,0.6l0.6,0.7l1.4,1.2l0.7,0.5l0.8,0.4l0.9,0.3l1.2,0.3l1.1,0.2l0.9,0.2h2.5l0.9-0.2l0.9-0.1l0.9-0.3l1-0.4
				l0.8-0.4l1.4-0.9l0.8-0.5l1.4-1l1.9-1.9l0.6-0.7l0.5-0.7l0.5-0.8l0.6-0.9l0.4-0.5l1.1-1.5l0.4-0.7l0.5-0.8l0.4-0.9l0.5-0.9
				l0.7-1.4l0.3-0.8l0.4-0.8l0.1-0.8l-0.3-0.4l-0.6-0.2l-0.9-0.1l-1-0.1l-0.9-0.2l-0.8-0.2l-0.9-0.3l-0.9-0.2l-0.8-0.3l-0.8-0.4
				l-2.3-0.9l-1.1-0.4l-2.9-1.7l-0.8-0.5l-1.4-1l-0.7-0.6l-3.6-3.7l-0.5-0.7l-0.6-0.7l-1-1.4l-0.4-0.7l-0.4-0.9l-0.8-1.5l-0.4-1.1
				l-0.4-1l-0.3-1l-0.4-1.1l-0.3-0.9l-0.2-1.7l-0.1-1v-0.4l-0.2-1.9l0.1-0.9l0.1-1l0.1-0.6l0.2-1.1L208,72l0.4-1.2l0.3-0.9l0.5-1.2
				l0.5-1.1l0.4-0.9l0.5-0.7l1.2-1.3l0.6-0.6l1.4-1.2l1.1-0.8l1.3-0.7l2.7-1.3l0.9-0.3l1.2-0.3l1.1-0.3l1-0.2l1.2-0.1h2.2l1.5,0.2
				l1.9,0.1l1.2,0.2l1.2,0.3l0.9,0.4l1.7,0.6l1.1,0.6l1.6,1l1,0.6l0.7,0.5l0.7,0.6l1.1,1.3l0.5,0.7l0.5,0.8l0.5,0.7l0.4,0.8l0.4,0.9
				l0.8,1.5l0.3,0.8l0.3,0.9l0.4,1.7l0.2,1.2l0.3,1.2l0.1,1l0.1,0.6l0.1,1l0.1,0.9v0.9l0.2,1.7v0.9l-0.1,1l-0.1,0.9l-0.2,0.8v1
				l-0.1,0.6v1.1l-0.2,0.9l-0.3,1.1l-0.2,1.2l-0.2,1l-0.1,0.9l-0.1,0.8l-0.2,0.9l-0.3,0.9v1.1l0.6,0.6h1.1l0.9-0.2l1.1-0.3l0.6-0.2
				l1.8-0.5l1.1-0.4l1.2-0.5l1-0.4l0.9-0.5l0.6-0.3l0.9-0.5l0.9-0.4l0.8-0.1l0.5,0.4l0.1,0.9l-0.2,0.8l-0.3,0.9l-0.4,0.8l-0.6,0.6
				l-0.8,0.5l-1,0.4L254,99l-1.7,0.9l-0.9,0.4l-0.8,0.3l-1,0.4l-0.6,0.2l-1,0.5l-0.8,0.3l-0.8,0.2l-0.9,0.2l-1,0.3l-1,0.2l-0.9,0.1
				l-0.8,0.2l-0.6,0.5L241,105l-0.3,0.9l-0.5,1.1l-1.4,2.9l-0.3,0.5l-0.5,0.9l-0.4,0.9l-1,1.5l-0.4,0.5l-0.6,0.9l-0.5,0.7l-1.1,1.3
				l-0.5,0.8l-0.6,0.7l-0.7,0.6l-0.7,0.7l-0.6,0.5l-1.2,1.2l-1.3,1.2l-0.8,0.5l-1.1,0.6l-1.1,0.7l-0.9,0.5l-0.8,0.4l-0.9,0.3
				l-0.8,0.2l-0.9,0.3l-0.9,0.2l-0.9,0.3l-1,0.1l-0.6,0.1l-1,0.1l-0.9,0.1h-2.6l-1.1-0.2l-1.1-0.1L209,126l-1.1-0.3l-0.9-0.3
				l-0.8-0.3l-0.9-0.5l-1.9-1.3l-0.8-0.7l-0.6-0.6l-0.7-0.6l-0.6-0.6l-0.6-0.8l-0.7-1l-0.6-1.1l-0.5-0.9L198.2,116.5z M215.3,76.7
				v2.6l0.1,1l0.2,0.9l0.1,0.9l0.6,1.7l0.3,0.8l0.4,0.9l0.4,0.8l0.5,0.7l0.5,0.9l0.4,0.8l1.1,1.3l0.7,0.7l0.4,0.5l1.3,1.3l0.7,0.6
				l0.8,0.6l0.7,0.5l0.8,0.5l0.7,0.5l1,0.5l0.6,0.2l1.1,0.5l0.6,0.2l1,0.4l2.4,0.8l1,0.2l0.9,0.2l0.8-0.1l0.7-0.7l0.4-1.1l0.6-2.6
				l0.2-1.2l0.1-1.2l0.1-1l0.3-2.6v-0.9l0.2-1.2v-5.2l-0.1-1.2l-0.1-1l-0.2-1.2l-0.2-1.2l-0.4-1.7l-0.3-0.9l-0.5-1.2l-0.4-1.1
				l-0.4-0.9l-0.5-0.8l-0.5-0.7l-0.5-0.5l-0.6-0.7l-0.8-0.6l-0.7-0.5l-0.8-0.4l-0.9-0.4l-1.2-0.3l-1.7-0.1l-1.2-0.1l-1,0.1l-1.2,0.2
				l-1.4,0.5l-1.4,0.8l-1.4,0.9l-1.1,1l-0.9,1l-0.4,0.8l-0.5,1.2l-0.4,1.4l-0.3,1.3l-0.2,1L215.3,76.7z"/>
			<path class="st2" d="M275.2,91.8l-0.8,0.4l-0.7,0.4l-0.7,0.5l-0.8,0.6l-0.7,0.6l-1.5,1.1l-0.7,0.5l-0.7,0.6l-0.7,0.7l-1.2,1.3
				l-0.7,0.7l-1.1,1.3l-1,1.5l-0.6,0.8l-1.1,2.3l-1.1,3.2l-0.3,1.2l-0.4,1.4l-0.4,1.2l-0.6,2.6l-0.4,1.2l-0.4,1.4l-0.3,1.2l-0.3,0.9
				l-0.3,1.2l-0.2,1l-0.3,1l-0.1,0.9l-0.2,0.8l-0.3,0.8l-0.6,0.5l-0.9,0.3l-0.9,0.1l-1.2,0.1L252,126l-1.2-0.2l-0.8-0.4l-0.6-0.9
				l-0.1-1.1l0.2-1l0.3-1.2l0.3-1.2l0.2-0.9l0.3-0.9l0.2-0.9l0.3-0.8l0.3-0.9l0.2-0.9l0.2-0.8l0.2-0.9l0.3-0.9l0.3-0.8l0.4-1.7
				l0.2-0.8l0.1-0.9l0.3-0.9l0.2-0.9l0.3-0.9l0.3-1.2l0.4-1.2l0.5-1.7l0.2-0.8l0.2-0.9l0.3-0.9l0.2-0.9l0.3-0.8l0.2-0.9l0.3-0.9
				l0.3-1.2l0.3-1.2l0.2-0.9l0.6-1.7l0.2-0.8l0.3-0.9l0.4-1.7l0.7-1l1.2-0.7l1.5-0.2l1.5,0.2l1.4,0.5l1,1l0.2,1.2l-0.2,1l-0.2,0.7
				l-0.3,0.9l-0.2,0.9l-0.3,0.8l-0.2,0.9l-0.3,0.9l-0.2,0.9l-0.1,0.6l0.1,0.1l0.4-0.5l0.6-0.7l0.5-0.7l1.1-1.3l0.7-0.6l1.2-1.1
				l0.7-0.6l1.2-1.2l1.9-1.5l0.8-0.5l0.8-0.4l0.8-0.5l0.8-0.3l0.9-0.3l1.2-0.3l1.1-0.2h2.2l1.5,0.2l1,0.2l0.9,0.4l0.9,0.5l0.7,0.7
				l0.5,0.7l0.5,0.8l0.4,0.8l0.3,0.9l0.3,1.2l0.2,1.2v1.8l-0.1,0.9v0.9l-0.1,0.8l-0.2,0.9l-0.2,1l-0.2,0.6l-0.3,1l-0.3,1.2L287,103
				l-0.4,1.2l-0.3,0.9l-0.3,1.2l-0.4,1.6l-0.4,1.5l-0.4,1.3l-0.2,0.9l-0.2,0.7l-0.2,0.9l-0.3,0.9l-0.2,0.8l-0.6,2.6l-0.1,0.9v1.7
				l0.4,0.8l0.7,0.5l0.9,0.1l0.9-0.3l0.9-0.4l0.8-0.5l0.7-0.5l0.8-0.6l1.2-1.2l0.5-0.7l0.6-0.8l0.5-0.7l0.7-0.8l0.5-0.7l0.6-0.9
				l0.9-1.4l0.6-0.9l0.3-0.5l0.6-0.9l0.5-0.9l0.8-1.5l0.4-0.9l0.3-0.8l0.2-0.9l0.5-0.8l0.9-0.6l1.2,0.3l0.8,1v1l-0.3,0.9l-0.4,0.8
				l-0.4,0.9l-0.4,0.8l-0.5,0.8l-0.4,0.8l-0.6,0.9l-0.3,0.6l-1,1.7l-0.2,0.6l-0.5,0.9l-1,1.5l-0.6,0.9l-0.4,0.5L294,119l-0.7,0.9
				l-0.6,0.7l-1.1,1.2l-0.6,0.7l-1.3,1.2l-0.6,0.6l-0.8,0.6l-0.8,0.5l-1.5,0.8l-0.8,0.3l-0.9,0.3l-0.9,0.2l-0.8,0.1l-1,0.1H281
				l-0.9-0.1l-0.8-0.2l-0.9-0.3l-0.8-0.3l-0.8-0.5l-0.6-0.5l-0.6-0.7l-0.4-0.9l-0.3-0.8l-0.2-0.9l-0.2-0.8V119l0.2-1.2l0.1-1
				l0.3-1.2l0.9-3.2l0.3-1.6l0.5-1.7l0.4-1.5l0.4-1.2l0.3-0.9l0.4-1.2l0.4-1.5l0.3-1.5l0.4-1.2l0.4-1.7l0.1-0.9l0.4-1.8l0.1-0.9
				l-0.2-1l-0.6-1l-0.9-0.9l-0.9-0.3l-0.9-0.1l-0.9,0.1L275.2,91.8z"/>
			<path class="st2" d="M327,79.7l-0.5,0.9l-0.8,1.5l-0.5,1.1l-0.7,1l-0.5,0.7l-0.5,0.8l-0.5,0.7l-0.5,0.9l-0.4,0.6l-0.5,0.8
				l-0.7,0.9l-0.9,1l-0.9,0.9l-0.4,0.5l-0.7,0.8l-1.2,1.2l-0.6,0.7l-1,1.2l-0.7,0.6l-0.8,0.8l-1,0.8l-1.4,1.2l-0.8,0.5l-2.1,1.3
				L308,101l-0.8,0.5l-1,0.9l-0.7,0.9l-0.4,0.8l-0.2,1.1l-0.3,1.7v0.6l-0.2,1l-0.2,0.9l-0.1,1v2l-0.1,1.2v1.9l0.2,1.1l0.1,0.6l0.2,1
				l0.4,0.9l0.4,0.8l0.6,0.7l0.8,0.5l0.8,0.3l1,0.2h1.6l0.8-0.1l0.9-0.3l1.2-0.5l1-0.6l0.8-0.6l1-0.8l0.9-0.9l1.1-1.1l0.8-0.7
				l0.6-0.9l0.4-0.5l0.6-0.8l0.4-0.7l0.6-0.9l0.4-0.5l0.6-0.9l0.8-1.4l0.5-0.8l0.6-0.9l0.5-0.9l0.5-1l0.9-1.2l1-0.8l1.2,0.2l0.8,1v1
				l-0.3,0.9l-0.4,0.8l-0.5,0.8l-0.4,0.9l-0.4,0.8l-0.3,0.8l-0.5,0.8l-0.4,0.7l-0.5,0.8l-0.6,0.9l-0.2,0.5l-0.5,0.9l-0.6,0.8l-1,1.3
				l-0.7,0.9l-0.4,0.4l-0.7,0.9l-0.6,0.7l-0.8,1l-0.9,0.8l-0.7,0.7l-0.6,0.5l-0.7,0.6l-0.9,0.5l-0.8,0.4l-0.9,0.4l-0.8,0.4l-0.8,0.3
				l-0.9,0.4l-1.1,0.4l-1.9,0.4l-1.1,0.1l-1.1-0.1h-0.6l-1-0.1l-0.9-0.2l-0.8-0.3l-0.9-0.3l-0.8-0.4l-0.8-0.5l-0.7-0.6l-0.6-0.6
				l-0.6-0.7l-0.4-0.8l-0.4-0.9l-0.3-0.8l-0.2-0.9l-0.3-0.9l-0.1-0.9l-0.2-1v-0.6l-0.2-1.1l-0.1-0.9v-0.9l0.1-0.9l0.1-1v-0.6
				l0.1-1.2l0.3-2.1l0.1-1.2v-0.9l0.2-0.9l0.2-1l0.7-3.2l0.3-1.2l0.3-1.7l0.2-0.5l0.3-1.2l0.2-0.6l0.4-1.4l0.3-1.2l0.2-0.9l0.3-1.2
				l0.4-1.3l0.1-0.7l0.4-1.3l0.4-1.2l0.3-0.7l0.4-1.2l0.4-1.2l0.4-0.9l1-2.5l0.2-0.6l0.6-1.3l0.7-1.5l0.5-1.2l0.4-0.9l0.3-0.6
				l0.5-0.9l0.7-1.6l0.5-1l0.5-0.9l0.6-0.9l0.8-1.2l1.2-1.7l0.6-0.8l1.2-1.2l0.4-0.5l0.7-0.7l0.7-0.5l1.5-1.1l1.1-0.7l1.1-0.5
				l0.9-0.3l0.9-0.2h1.7l1,0.2l0.6,0.1l1,0.3l0.8,0.4l1.3,1.2l0.5,0.8l0.7,1l0.5,1.2l0.4,0.9l0.4,1.2l0.2,1.2v1.7l-0.2,2.6L329,74
				l-0.3,0.8l-0.2,1l-0.8,2.2l-0.4,0.8L327,79.7z M311.1,82.3l-1.4,4l-0.2,0.9l-0.3,0.9l-0.4,1.2l-0.7,2l-0.3,1l-0.1,0.6l-0.3,1
				l-0.3,0.9l-0.2,1l0.2,0.6l0.6-0.4l1-0.8l3.9-3.9l0.5-0.7l0.5-0.8l0.6-0.9l0.4-0.4l0.6-0.9l0.7-0.9l0.7-1l0.7-1.1l0.5-0.8l0.4-0.7
				l0.5-0.7l0.8-1.5l0.4-1l0.3-0.6l0.4-1l0.4-0.9l0.2-0.9l0.3-0.9l0.3-1.1l0.4-1l0.3-1.1l0.4-1.1l0.1-1l0.1-0.9v-1.8l-0.2-0.8
				l-0.3-0.8l-0.7-0.5l-0.8-0.2l-0.9,0.2l-0.9,0.7l-0.7,0.6l-0.5,0.6l-0.5,0.7l-0.5,0.8l-1,1.4l-0.5,0.9l-0.4,0.9l-0.4,0.8l-0.4,0.9
				l-0.4,0.8l-0.4,0.9l-0.3,0.8l-0.4,1l-0.6,1.4l-0.4,0.9L311.1,82.3z"/>
			<path class="st2" d="M348.2,105.1v1.1l-0.3,0.9l-0.8,1.5l-0.9,1.4l-0.5,0.9l-0.4,0.8l-0.6,0.9l-0.3,0.6l-0.5,0.9l-0.5,0.8
				l-0.5,0.7l-0.6,0.8l-0.5,0.7l-1,1.5l-1.7,2l-1.1,1.2l-0.7,0.7l-0.6,0.7l-0.7,0.6l-2.1,1.6l-0.7,0.5l-0.9,0.4l-0.9,0.3l-0.8,0.2
				l-1.7,0.4h-1.6l-1.1-0.1l-0.8-0.3l-0.9-0.3l-0.8-0.5l-0.7-0.6l-0.5-0.7l-0.5-0.8l-0.4-0.9l-0.2-0.8l-0.2-0.9l-0.1-0.9v-0.9
				l0.2-1.7l0.2-0.9l0.3-0.9l0.4-1.7l0.3-0.8l0.2-0.9l0.3-0.9l0.3-0.8l0.9-2.6l0.1-0.8l0.2-0.9l0.3-0.9l0.2-0.9l0.2-0.8l0.6-1.7
				l0.3-1.2l0.3-1.2l0.6-1.7l0.2-0.9l0.2-0.7l0.2-0.9l0.4-1l0.3-0.8l0.6-2.6l0.3-0.9l0.3-1.2l0.4-1.2l0.3-0.9l0.4-0.8l0.6-0.5
				l0.9-0.4l0.8-0.1l1,0.1l1.7,0.2l1.5,0.6l0.5,0.7v0.9l-0.2,0.9l-0.3,1.2l-0.3,1.2l-0.6,1.7l-0.2,0.8l-0.2,0.9l-0.3,1l-0.3,1.1
				l-1,2.9l-0.2,0.9l-0.4,1.2l-0.7,2l-0.2,0.9l-0.2,0.8l-0.2,0.9l-0.7,1.6l-0.2,0.9l-0.7,2.4l-0.6,1.7l-0.2,0.9l-0.3,1.2l-0.3,1.5
				l-0.2,1.6l0.2,1.4l0.8,1.1l1,0.3l0.9-0.1l0.9-0.4l0.7-0.5l0.8-0.6l3.2-3.2l0.6-0.7l0.5-0.7l0.6-0.8l1-1.5l0.6-0.7l0.4-0.6
				l0.5-0.8l0.6-0.9l0.4-0.9l0.8-1.6l1.1-2.3l0.5-0.8l0.9-0.5l1.2,0.2L348.2,105.1z M332.7,75.6l0.5-0.8l0.8-0.7l0.8-0.5l1-0.3
				l0.9-0.2h1l0.9,0.2l0.8,0.5l0.7,0.6l0.7,0.7l0.5,0.8l0.3,0.9l0.1,0.9v1l-0.3,0.9l-0.5,0.8L340,81l-0.7,0.6l-0.8,0.6l-0.9,0.4
				l-1,0.2l-0.9-0.1l-1-0.2l-1.5-1l-0.6-0.7l-0.5-0.8l-0.2-0.9l-0.1-0.9l0.1-0.9l0.2-1L332.7,75.6z"/>
			<path class="st2" d="M365.9,91.8l-0.8,0.4l-0.7,0.4l-0.7,0.5l-0.8,0.6l-0.7,0.6l-1.5,1.1l-0.7,0.5l-0.7,0.6l-0.7,0.7l-1.1,1.3
				L357,99l-1.2,1.3l-1,1.5l-0.6,0.8l-1.1,2.3l-1,3.2l-0.3,1.2l-0.4,1.4l-0.4,1.2l-0.6,2.6l-0.4,1.2l-0.4,1.4l-0.3,1.2l-0.3,0.9
				l-0.3,1.2l-0.2,1l-0.3,1l-0.1,0.9l-0.2,0.8l-0.3,0.8l-0.6,0.5l-0.9,0.3l-0.9,0.1l-1.2,0.1l-1.4-0.1l-1.2-0.2l-0.8-0.4l-0.6-0.9
				l-0.1-1.1l0.2-1l0.3-1.2l0.3-1.2l0.2-0.9l0.3-0.9l0.2-0.9l0.3-0.8l0.3-0.9l0.2-0.9l0.2-0.8l0.2-0.9l0.3-0.9l0.3-0.8l0.4-1.7
				l0.2-0.8l0.1-0.9l0.3-0.9l0.2-0.9l0.3-0.9l0.3-1.2l0.4-1.2l0.5-1.7l0.2-0.8l0.2-0.9l0.3-0.9l0.2-0.9l0.3-0.8l0.2-0.9l0.3-0.9
				l0.3-1.2l0.3-1.2l0.2-0.9l0.6-1.7l0.2-0.8l0.3-0.9l0.4-1.7l0.7-1l1.2-0.7l1.5-0.2l1.5,0.2l1.4,0.5l1,1l0.2,1.2l-0.2,1l-0.2,0.7
				l-0.3,0.9l-0.2,0.9l-0.3,0.8l-0.2,0.9l-0.3,0.9l-0.2,0.9l-0.1,0.6l0.1,0.1l0.4-0.5l0.6-0.7L357,94l1.1-1.3l0.7-0.6l1.2-1l0.7-0.6
				l1.2-1.2l1.9-1.5l0.8-0.5l0.8-0.4l0.8-0.5l0.8-0.3l0.9-0.3l1.2-0.3l1.1-0.2h2.2l1.5,0.2l1.1,0.2l0.9,0.4l0.9,0.5l0.7,0.7l0.5,0.7
				l0.5,0.8l0.4,0.8l0.3,0.9l0.3,1.2l0.2,1.2v1.8l-0.1,0.9v0.9l-0.1,0.8l-0.2,0.9l-0.2,1l-0.2,0.6l-0.3,1l-0.3,1.2l-0.4,1.4
				l-0.4,1.2l-0.3,0.9l-0.3,1.2l-0.4,1.6l-0.4,1.5l-0.4,1.3l-0.2,0.9l-0.2,0.7l-0.2,0.9l-0.3,0.9l-0.2,0.8l-0.6,2.6l-0.1,0.9v1.7
				l0.4,0.8l0.7,0.5l0.9,0.1l0.9-0.3l0.9-0.4l0.8-0.5l0.7-0.5l0.8-0.6l1.2-1.2l0.5-0.7l0.6-0.8l0.5-0.7l0.7-0.8l0.5-0.7l0.6-0.9
				l0.9-1.4l0.6-0.9l0.3-0.5l0.6-0.9l0.5-0.9l0.8-1.5l0.4-0.9l0.3-0.8l0.3-0.9l0.5-0.8l0.9-0.6l1.2,0.3l0.8,1v1l-0.3,0.9l-0.4,0.8
				l-0.4,0.9l-0.4,0.8l-0.5,0.8l-0.4,0.8l-0.6,0.9l-0.3,0.6l-1,1.7l-0.2,0.6l-0.5,0.9l-1,1.5l-0.6,0.9l-0.4,0.5l-0.6,0.8l-0.7,0.9
				l-0.6,0.7l-1.1,1.2l-0.6,0.7l-1.4,1.2l-0.6,0.6l-0.8,0.6l-0.8,0.5l-1.5,0.8l-0.8,0.3l-0.9,0.3l-0.9,0.2l-0.8,0.1l-1,0.1h-0.9
				l-0.9-0.1l-0.8-0.2l-0.9-0.3l-0.8-0.3l-0.8-0.5l-0.6-0.5l-0.6-0.7l-0.4-0.9l-0.3-0.8l-0.2-0.9l-0.2-0.8V119l0.2-1.2l0.1-1
				l0.3-1.2l0.9-3.2l0.3-1.6l0.4-1.6l0.4-1.5l0.4-1.2l0.3-0.9l0.4-1.2l0.4-1.5l0.3-1.5l0.4-1.2l0.4-1.7l0.1-0.9l0.4-1.8l0.1-0.9
				l-0.2-1l-0.6-1l-0.9-0.9l-0.9-0.3l-0.9-0.1l-0.9,0.1L365.9,91.8z"/>
			<path class="st2" d="M419.7,102.8l-0.5,0.7l-1.1,1.3l-1.3,1.2l-0.7,0.5l-0.9,0.5l-0.6,0.2l-1,0.6l-0.6,0.3l-0.9,0.4l-1,0.3
				l-0.9,0.3l-0.9,0.1l-1,0.2l-1,0.1l-1.2,0.2l-0.9,0.1h-0.9l-1.7-0.2l-1.7-0.1l-0.9-0.1l-2.6-0.6h-0.7l-0.5,0.4l-0.2,0.7v0.9
				l-0.1,1v1.6l0.1,1l0.2,0.8l0.6,1.7l1,1.5l0.6,0.7l0.6,0.6l1.5,1l1,0.3l0.9,0.3l0.7,0.1l0.9,0.2l0.9,0.1h1l0.9-0.1l2.5-0.5
				l0.9-0.2l0.9-0.3l0.8-0.3l1.6-0.7l1.5-0.8l1.3-1.1l0.7-0.6l0.7-0.6l1.3-1.2l1.1-1.3l0.5-0.7l0.6-0.8l1-1.3l0.5-0.8l0.4-0.8
				l0.5-0.8l0.4-0.8l0.5-0.7l0.4-0.8l0.4-0.9l0.4-0.8l0.5-0.8l0.7-0.5h0.9l0.9,0.6l0.5,0.9l-0.1,0.9l-0.4,0.9l-0.5,1.1l-0.6,1
				l-0.5,1.1l-0.6,1.1l-0.6,1l-1,1.5l-0.3,0.6l-0.6,0.9l-1,1.3l-0.6,0.7l-0.6,0.6l-0.6,0.7l-0.7,0.8l-0.3,0.4l-0.7,0.8l-0.6,0.7
				l-1.3,1.2l-1,0.8l-0.9,0.8l-1.5,1l-2.4,1.1l-0.8,0.3l-0.9,0.3l-1.2,0.2l-1.1,0.3l-2,0.2l-1.2,0.1l-1,0.1h-0.9l-3.5-0.4l-0.8-0.2
				l-0.9-0.3l-0.9-0.4l-0.8-0.4l-1.5-0.9l-0.8-0.4l-0.7-0.6l-0.7-0.7l-0.4-0.5l-0.7-0.8l-0.6-0.7l-0.5-0.8l-0.4-0.7l-0.4-0.9
				l-0.3-0.8l-0.3-0.9l-0.2-0.9l-0.2-0.8l-0.2-0.9L388,112v-1.9l0.1-0.9v-0.9l0.6-2.6l0.3-0.8l0.2-0.9l0.3-0.9l0.2-0.9l0.3-0.9
				l0.4-1.1l0.5-1.2l0.5-0.9l0.6-1l0.7-1l0.4-0.9l0.5-0.7l0.6-0.7l1.4-1.5l1.5-1.4l0.8-0.7l0.9-0.7l1-0.7l0.9-0.7l1-0.6l1-0.5
				l0.9-0.4l1.2-0.6l2-0.7l1.7-0.4l1.2-0.2h2.1l1.2,0.2l1.5,0.3l1.2,0.3l0.9,0.3l0.9,0.4l0.8,0.4l0.6,0.4l1.4,1.2l0.6,0.7l0.6,1
				l0.5,1.2l0.3,0.9l0.2,0.9l0.1,0.9v1.2l-0.2,1.2l-0.1,1l-0.3,1.2l-0.4,1.2l-0.4,1l-0.3,0.5l-0.5,0.9L419.7,102.8z M408,91.3
				l-1.4,0.6l-1.1,0.6l-0.8,0.5l-1.3,1.2l-0.9,0.9l-0.8,0.9l-0.7,0.8l-0.7,1.1l-0.7,1l-0.5,0.9l-0.6,1.1l-0.4,1.2l-0.4,0.9l-0.3,0.8
				l-0.1,0.7l0.5,0.5l1.2,0.3l1.9,0.1l1,0.1h2.7l1-0.2l0.9-0.2l1-0.4l0.6-0.2l1-0.5l0.7-0.5l0.7-0.6l0.7-0.7l0.7-0.6l0.6-0.8
				l0.5-0.7l0.4-0.8l0.5-0.9l0.6-1.7l0.2-1l0.1-0.9l-0.1-1l-0.4-0.9l-0.6-0.7l-0.8-0.6l-0.9-0.4l-0.9-0.2l-0.9-0.1l-1,0.2L408,91.3z
				"/>
		</g>
		<g>
			<path class="st0" d="M72.4,188.9v5.5c0,15.9-4.8,26-15.6,31c13,5.1,18,16.7,18,33V271c0,23.8-12.5,36.5-36.8,36.5H0v-154h36.5
				C61.6,153.5,72.4,165.2,72.4,188.9z M24.2,175.5v40.7h9.5c9,0,14.5-4,14.5-16.3v-8.6c0-11-3.8-15.9-12.3-15.9H24.2z M24.2,238.2
				v47.3h13.9c8.2,0,12.5-3.7,12.5-15.2V257c0-14.3-4.6-18.7-15.6-18.7L24.2,238.2z"/>
			<path class="st0" d="M87.4,190.5c0-24.6,13-38.7,36.8-38.7s36.8,14.1,36.8,38.7v80.1c0,24.6-13,38.7-36.8,38.7
				s-36.8-14.1-36.8-38.7V190.5z M111.6,272.1c0,11,4.8,15.2,12.6,15.2s12.5-4.2,12.5-15.2v-83.2c0-11-4.9-15.2-12.6-15.2
				s-12.6,4.2-12.6,15.2L111.6,272.1z"/>
			<path class="st0" d="M199.6,153.5v118.9c0,11,4.9,15,12.6,15s12.6-4,12.6-15V153.5h22.9v117.3c0,24.6-12.3,38.7-36.1,38.7
				s-36.1-14.1-36.1-38.7V153.5H199.6z"/>
			<path class="st0" d="M257.1,153.5H332v22h-25.4v132.1h-24.2V175.5h-25.3V153.5z"/>
			<path class="st0" d="M342.5,153.5h24.2v154.1h-24.2V153.5z"/>
			<path class="st0" d="M382.4,190.5c0-24.6,13-38.7,36.8-38.7s36.8,14.1,36.8,38.7v80.1c0,8.6-1.5,15.8-4.6,21.6
				c1.1,2.9,2.9,3.3,6.8,3.3h2.2V317H457c-10.8,0-17.6-4-20.9-10.6c-5.4,1.9-11.2,2.9-17,2.9c-23.8,0-36.8-14.1-36.8-38.7
				L382.4,190.5z M406.6,272.1c0,11,4.8,15.2,12.5,15.2s12.5-4.2,12.5-15.2v-83.2c0-11-4.8-15.2-12.5-15.2s-12.5,4.2-12.5,15.2
				V272.1z"/>
			<path class="st0" d="M494.6,153.5v118.9c0,11,4.8,15,12.5,15c7.7,0,12.6-4,12.6-15V153.5h22.9v117.3c0,24.6-12.3,38.7-36.1,38.7
				s-36.1-14.1-36.1-38.7V153.5H494.6z"/>
			<path class="st0" d="M583.3,218.4h33.2v22h-33.2v45.1h41.8v22h-66V153.5h66v22h-41.8V218.4z"/>
		</g>
		<g>
			<path class="st0" d="M232.2,435.6c2.2,1.1,3.3,1.7,5.5,2.7l-1.5,3.2c-2.3-1.1-3.4-1.6-5.6-2.8l-3.4,6.5c2.9,1.5,4.4,2.2,7.4,3.6
				l-1.5,3.3c-4.8-2.2-7.1-3.4-11.8-6l12.1-22c4,2.2,6.1,3.2,10.2,5.2l-1.5,3.3c-2.7-1.2-4-1.9-6.6-3.2
				C234.1,431.9,233.5,433.1,232.2,435.6z"/>
			<path class="st0" d="M258.2,435c3.8,1.3,5.1,4.1,3.9,7.9l-0.2,0.8c-1.5-0.5-2.3-0.7-3.9-1.2l0.3-1c0.6-1.7,0.1-2.6-1.2-3
				s-2.2-0.1-2.8,1.6c-1.8,4.9,6.1,8.5,4,15.4c-1.2,3.8-4.2,5.4-8.6,3.8s-5.9-4.6-4.4-8.4l0.6-1.4c1.6,0.6,2.4,1,4.1,1.5l-0.6,1.7
				c-0.5,1.2,0.1,2.6,1.3,3.1c1.2,0.5,2.6-0.1,3.1-1.3c0-0.1,0.1-0.2,0.1-0.3c1.6-4.9-6.2-8.8-3.6-15.5
				C251.6,435.1,254.4,433.7,258.2,435z"/>
			<path class="st0" d="M272.2,439.6c4.9,1.2,7.4,1.8,12.4,2.6c-0.2,1.4-0.4,2.1-0.6,3.5c-1.7-0.3-2.6-0.5-4.3-0.8l-4.2,21.1
				c-1.9-0.4-2.8-0.6-4.6-1l4.7-21c-1.7-0.4-2.6-0.6-4.3-1L272.2,439.6z"/>
			<path class="st0" d="M293.3,464.9l-0.4,3.8c-1.8-0.2-2.7-0.3-4.5-0.5c0.2-1.5,0.3-2.3,0.5-3.8
				C290.6,464.6,291.5,464.7,293.3,464.9z"/>
			<path class="st0" d="M325.2,447.4c-1.3,0.1-2.1,0.8-2,2.6c0.1,1.1,0.1,1.6,0.2,2.7c-1.6,0.1-2.4,0.1-4.1,0.2c0-1,0-1.5-0.1-2.4
				c-0.2-4,1.8-6.4,5.8-6.7s6.3,1.7,6.8,5.7c0.9,7.9-7.7,11.6-7.4,15.7c0,0.2,0,0.4,0.1,0.5c3.5-0.2,5.2-0.4,8.7-0.8
				c0.2,1.4,0.2,2.1,0.4,3.6c-5.4,0.6-8.1,0.8-13.6,1l-0.1-3.1c-0.3-7.4,8.4-9.2,7.8-16.4C327.5,447.9,326.6,447.3,325.2,447.4z"/>
			<path class="st0" d="M341.8,448.1c-0.7-4,1.1-6.6,5-7.4s6.6,0.8,7.6,4.7c1.3,5.1,1.9,7.6,3.2,12.7c1,3.9-0.9,6.8-5.5,7.8
				s-7.5-0.9-8.1-4.9C343.1,455.8,342.6,453.3,341.8,448.1z M348.5,460.4c0.4,1.8,1.4,2.2,2.9,1.9s2.2-1.2,1.8-2.9
				c-1.2-5.3-1.8-7.9-3-13.2c-0.4-1.8-1.4-2.2-2.7-2s-2,1.1-1.6,2.9L348.5,460.4z"/>
			<path class="st0" d="M363.2,439.9c3.1-1,3.3-2.6,3.4-4.5c1-0.4,1.6-0.5,2.6-0.9c3.5,9.4,5.2,14.1,8.6,23.6
				c-1.8,0.7-2.7,1-4.5,1.6c-2.5-7.3-3.7-10.9-6.1-18.1c-1.2,0.4-1.9,0.6-3.1,1L363.2,439.9z"/>
			<path class="st0" d="M391.6,443.5l1,2.1c0.5,1.2,2,1.8,3.2,1.3c1.2-0.5,1.8-2,1.3-3.2c0-0.1-0.1-0.2-0.1-0.2c-1-2-1.5-3-2.5-4.9
				c-0.8-1.6-1.9-1.8-3.2-1.1s-1.8,1.6-1,3.2l0.3,0.7c-1.5,0.8-2.3,1.1-3.9,1.8c-2.1-5.4-3.2-8.1-5.3-13.6c4-1.8,6-2.8,9.9-5
				c0.7,1.3,1,1.9,1.7,3.1c-2.6,1.4-4,2.1-6.6,3.4c0.9,2.2,1.4,3.3,2.3,5.5c0.2-1.5,1.2-2.8,2.6-3.4c2.9-1.5,5.3-0.5,7.1,2.7l2.7,5
				c1.9,3.5,0.9,6.8-3.4,8.9s-7.5,1-9.1-2.6l-0.9-1.9C389.3,444.6,390.1,444.2,391.6,443.5z"/>
		</g>
	</g>
	<g>
		<polygon class="st0" points="167.7,127 116,37.5 509.2,37.5 457.5,127 480.6,127 543.8,17.5 81.3,17.5 144.6,127 		"/>
		<polygon class="st0" points="338,334 312.6,378 287.2,334 264.1,334 312.6,418 361.1,334 		"/>
	</g>
	<g>
		<path class="st0" d="M518.6,127c-7-13.8-15.3-26.9-24.9-39l-7.9,6.2c8.1,10.3,15.3,21.3,21.5,32.8H518.6z"/>
		<path class="st0" d="M507.3,334c-1,1.8-2,3.7-3,5.5c-18.3,32.1-44.4,59.2-75.9,78.7l5.3,8.5c32.9-20.4,60.1-48.6,79.3-82.2
			c2-3.4,3.8-6.9,5.6-10.4H507.3z"/>
	</g>
</g>
<text transform="matrix(1 0 0 1 180.549 127)" class="st0 st3 st4">Zenta</text>
</svg>
